<svg width="600" height="600" xmlns="http://www.w3.org/2000/svg">

 <g>
  <title>Layer 1</title>
  <g stroke-width="0" transform="rotate(15, 300, 300)" id="svg_6">
   <rect rx="35" stroke-width="2" id="svg_1" height="400" width="300" y="100" x="150.00002" stroke="#000" fill="#ffffff"/>
   <path id="svg_5" d="m263.67641,406.48413c12.93476,-13.36745 23.91221,-29.28878 28.54889,-47.36562c-13.86587,10.43291 -26.58294,27.21362 -45.92512,26.57788c-14.60214,0.82942 -31.99661,0.84346 -42.27533,-11.24306c-22.97002,-18.28035 -29.14041,-54.81684 -10.27844,-78.08112c12.90763,-16.79773 35.44719,-23.92043 56.132,-21.40097c13.03306,-5.47294 -2.54912,-19.33092 -4.11615,-27.97975c-9.70008,-31.37261 13.15163,-69.00348 46.75325,-72.61753c24.10099,-3.42432 47.6617,12.01652 59.45468,32.05543c6.40866,14.02159 3.06951,29.93511 1.57432,44.48155c-5.03502,7.31012 -17.93033,24.99522 0.47172,23.60222c18.19434,-0.28497 37.4078,5.00135 49.40532,19.3204c17.54854,19.28487 19.15823,51.15327 1.5026,70.85885c-9.33928,12.00255 -23.35373,21.60889 -39.21555,21.07406c-15.52502,1.55111 -32.33629,-1.78217 -43.3453,-13.48936c-4.69535,-3.25621 -16.20056,-15.55886 -16.19658,-12.86086c11.49975,23.71015 24.50345,48.33288 47.50818,63.02541c8.2194,6.54068 -12.51941,2.04388 -17.53991,3.37698c-30.41846,0.0266 -60.8368,0.05374 -91.25527,0.08047c6.26553,-6.47175 12.53146,-12.94322 18.79672,-19.41497l0,-0.00002z" stroke="#000" fill="#000000"/>
  </g>
 </g>
</svg>